<?xml version="1.0" encoding="utf-8"?>
<!-- Generator: Adobe Illustrator 23.0.4, SVG Export Plug-In . SVG Version: 6.00 Build 0)  -->
<svg version="1.1" id="svg2924" xmlns="http://www.w3.org/2000/svg" xmlns:xlink="http://www.w3.org/1999/xlink" x="0px" y="0px"
	 viewBox="0 0 1264.3 219.8" style="enable-background:new 0 0 1264.3 219.8;" xml:space="preserve">
<style type="text/css">
	.st0{fill:#0092FF;}
	.st1{fill:#FFFFFF;}
</style>
<title>hifi-logo</title>
<g>
	<path class="st0" d="M238.8,219.8H0V0h238.8V219.8z"/>
	<rect x="70.9" y="85.8" class="st1" width="14.9" height="48.2"/>
	<polygon class="st1" points="94.8,85.8 94.8,134 109.6,134 109.6,115.6 128.9,115.6 128.9,104.2 109.6,104.2 109.6,98.2 132,98.2 
		132,85.8 	"/>
	<polygon class="st1" points="47.7,85.8 47.6,104.1 29.9,104.1 29.9,85.8 15.1,85.8 15.1,134 29.9,134 29.9,115.6 47.6,115.6 
		47.6,134 62.4,134 62.4,85.8 	"/>
	<rect x="137" y="85.8" class="st1" width="14.8" height="48.2"/>
	<path class="st1" d="M143.4,31.7c-31,0-59.2,18.4-71.6,46.8h14.9c17.4-31.3,56.8-42.6,88.1-25.2c13,7.2,23.1,18.7,28.7,32.5h-39.1
		v11.6H207c0.4,2.2,0.8,4.5,1,6.7h-43.5v11.6H208c-0.2,2.4-0.5,4.8-1,7.1h-42.5v11.6h39c-13.4,33.2-51.2,49.2-84.3,35.8
		c-13.8-5.6-25.2-15.7-32.4-28.8H71.8c12.1,27.6,39.6,46.9,71.6,46.9c43.2,0,78.2-35,78.2-78.2S186.6,31.7,143.4,31.7z"/>
</g>
<g>
	<rect x="261.5" y="-0.1" class="st0" width="219.8" height="219.8"/>
	<rect x="492.1" y="-0.1" class="st0" width="220.3" height="219.8"/>
	<rect x="723.2" y="-0.1" class="st0" width="220.3" height="219.8"/>
	<path class="st1" d="M833.1,28.6c-45.3,0-79.2,34.2-79.2,79.2s34,79.2,79.2,79.2c45.3,0,79.2-34.2,79.2-79.2S878.3,28.6,833.1,28.6
		z M276.4,33.1l41.1,149.7h29.8l24.1-73.8l24.1,73.8h30.3l41-149.7h-38.6l-19.5,79.2l-24-79.2h-26.1l-24.5,79.2l-19.5-79.2H276.4z
		 M833.1,67.2c19.6,0,34.4,17.7,34.4,40.6s-14.9,40.2-34.4,40.2c-19.6,0-34.4-17.5-34.4-40.6C798.7,84.6,813.7,67.1,833.1,67.2
		L833.1,67.2z"/>
	<rect x="965" y="82.8" class="st0" width="299.3" height="52.5"/>
	<rect x="965" y="-0.1" class="st0" width="299.3" height="52.5"/>
	<rect x="965" y="167.3" class="st0" width="299.3" height="52.5"/>
	<path class="st1" d="M601.9,93.8v34.8h23v23.9c-4.1,0.8-8.2,1.1-12.4,1c-26.3,0-42.6-17.1-42.6-44.6s16.9-43.9,45.1-43.9
		c16.9,0,26.5,3.2,33,6.1l4.6,1.9l9.2-35.1l-3.2-1.5c-7.7-3.7-23.1-7.7-43.2-7.7c-25.6,0-47.6,7.4-63.5,21.4
		C535,64.6,526.1,85.5,526,110.5c-0.2,23.2,7.7,43.6,22.2,57.3c14.8,14.3,35.6,21.3,63.5,21.3c17.4-0.3,34.6-3.2,51.1-8.6l2.9-1
		V93.8H601.9z"/>
</g>
</svg>
